<svg xmlns="http://www.w3.org/2000/svg" viewBox="0 0 47.5 47.5" id="globe"><defs><clipPath id="a"><path d="M0 38h38V0H0v38Z"></path></clipPath><clipPath id="b"><path d="M1 19C1 9.059 9.059 1 19 1s18 8.059 18 18-8.059 18-18 18S1 28.941 1 19"></path></clipPath></defs><g clip-path="url(#a)" transform="matrix(1.25 0 0 -1.25 0 47.5)"><path fill="#88c9f9" d="M37 19c0-9.941-8.059-18-18-18S1 9.059 1 19s8.059 18 18 18 18-8.059 18-18"></path></g><g clip-path="url(#b)" transform="matrix(1.25 0 0 -1.25 0 47.5)"><path fill="#5c913b" d="M28.938 35.438c-2.305.943-3.375-1.937-5.25-1.375-1.875.563-4.375 1.812-6 .25-1.625-1.563-2-3 0-2.937 2 .062 3.375 2.437 4.375 1.437 1-1 .75-1.812-1.625-2.125-2.375-.312-4.938-.687-6.313-.687-1.374 0-1.687-.813-.75-1.688.938-.875-.562-.938-2.124-1.813-1.563-.875.375-1.25 1.687-2s2.312.188 2.875 1.438c.562 1.25 2.98 2.75 3.99 2.563 1.01-.188 1.01-.688.822-1.563-.187-.875.751-.625.813.375.063 1 1.188 1.75 2.063 1.813.875.062 1.624-1.188.625-1.813-1-.625-2-1.125-.75-1.438 1.25-.312 2.124-1.937.687-2.625-1.437-.687-3.938-1.125-5.063-.562-1.125.562-3.687 1.375-4.375.937-.687-.437-1.062-.889-1.874-1.194-.813-.306-4.125-1.806-4.188-3.743-.062-1.937-.125-4.125 1.188-4.187 1.312-.063 4.499.812 5.499 1.625 1 .812 2.375.625 2.813-.313.437-.937.125-1.5-.313-3-.437-1.5.287-2.25.987-3.562.701-1.313 1.263-2.063 1.263-3 0-.938 1.001-1.875 2.501-.313 1.5 1.563 2.874 4.625 3.499 5.75s1.126 3.625 1.876 4.125 1.937 1.688 1.062 1.5c-.875-.187-2.625.063-3.063 1.313-.437 1.249-2.312 3.624-1.437 3.874.875.25 1.875-1.389 2.25-2.163.375-.774.875-1.711 1.625-1.961s2.375 1.672 2.875 1.961c.5.288.125 1.476-.875 1.351s-2.312 0-2.312.625 1.249 1.437 2.249 1.25c1.001-.188 1.751-.5 2.376-1.25.624-.75 1.874-2.125 2.374-3s.875-1 1.125.562c.25 1.563.625 2.063.876 3.25.25 1.188-2.563 10.063-8.063 12.313"></path></g></svg>